# xmcd
#
# Track frame offsets:
#	150
#	10429
#	27833
#	39019
#	52530
#	69280
#	86862
#	101434
#	114135
#	125604
#	143571
#	152323
#
# Disc length: 2163 seconds
#
# Revision: 1
# Processed by: cddbd v1.5.2PL0 Copyright (c) Steve Scherf et al.
# Submitted via: audiograbber 1.83.01
#
DISCID=7f08710c
DTITLE=Die Wildschönauer - Voll auf Zug
DYEAR=2010
DGENRE=volkstümlich
TTITLE0=Dria lei ho weil mia drei Wildschönauer san
TTITLE1=Ein Musikant kennt kein zuhause
TTITLE2=Krautschnapsboarischer
TTITLE3=Hubi Go
TTITLE4=Dankeschön
TTITLE5=Wohin die Reise
TTITLE6=Steh wieda auf
TTITLE7=Es is a Freud
TTITLE8=Dengllied
TTITLE9=Noch einmal erklingt der Walzer
TTITLE10=Solojodler
TTITLE11=Gean hom tuat guat
EXTD=
EXTT0=
EXTT1=
EXTT2=
EXTT3=
EXTT4=
EXTT5=
EXTT6=
EXTT7=
EXTT8=
EXTT9=
EXTT10=
EXTT11=
PLAYORDER=
